<?xml version="1.0" encoding="utf-8"?>
<!-- Generator: Adobe Illustrator 24.0.2, SVG Export Plug-In . SVG Version: 6.00 Build 0)  -->
<svg version="1.1" id="Capa_1" xmlns="http://www.w3.org/2000/svg" xmlns:xlink="http://www.w3.org/1999/xlink" x="0px" y="0px"
	 viewBox="0 0 108.9 108.9" style="enable-background:new 0 0 108.9 108.9;" xml:space="preserve">
<style type="text/css">
	.st0{fill:#E17070;}
	.st1{fill:#FFFFFF;}
</style>
<g id="background_stop_verde" transform="translate(-116 -146.25)">
	<g transform="matrix(1, 0, 0, 1, 116, 146.25)">
		<g id="Trazado_2255-2">
			<path class="st0" d="M106.4,29.4L79.5,2.5c-1.6-1.6-3.8-2.5-6-2.5H35.4c-2.3,0-4.4,0.9-6,2.5L2.5,29.4C0.9,31,0,33.2,0,35.4v38.1
				c0,2.3,0.9,4.4,2.5,6l26.9,26.9c1.6,1.6,3.8,2.5,6,2.5h38.1c2.3,0,4.4-0.9,6-2.5l7.1-7.1l13.5-13.5l6.3-6.3
				c1.6-1.6,2.5-3.8,2.5-6V35.4C108.9,33.2,108,31,106.4,29.4z"/>
		</g>
	</g>
	<g id="stop" transform="translate(127.777 154.748)">
		<g id="Trazado_2256">
			<path class="st1" d="M31.8-6h-9.4c-0.6,0-1.2,0.3-1.7,0.7l-29,29C-8.7,24.1-9,24.7-9,25.4v41c0,0.6,0.3,1.2,0.7,1.7l29,29
				c0.5,0.4,1.1,0.7,1.7,0.7h41c0.6,0,1.2-0.3,1.7-0.7l29-29c0.4-0.5,0.7-1.1,0.7-1.7v-41c0-0.6-0.3-1.2-0.7-1.7l-29-29
				C64.6-5.7,64-6,63.3-6h-9.8c-1.3,0-2.4,1.1-2.4,2.4c0,1.3,1.1,2.4,2.4,2.4h8.9l27.6,27.6v39L62.3,92.9h-39L-4.2,65.3v-39
				L23.4-1.2h8.4c1.3,0,2.4-1.1,2.4-2.4C34.2-4.9,33.1-6,31.8-6C31.8-6,31.8-6,31.8-6L31.8-6z"/>
			<path class="st0" d="M63.3,98.7C63.3,98.7,63.3,98.7,63.3,98.7h-41c0,0,0,0,0,0c-0.9,0-1.8-0.4-2.4-1l-29-29
				c-0.6-0.6-1-1.5-1-2.4v-41c0-0.9,0.4-1.8,1-2.4L20-6c0.6-0.6,1.5-1,2.4-1c0,0,0,0,0,0h9.4c0.9,0,1.8,0.4,2.4,1
				c0.6,0.6,1,1.5,1,2.4s-0.4,1.8-1,2.4c-0.6,0.6-1.5,1-2.4,1c0,0,0,0,0,0h-8l-27,27v38.1l27,27h38.1l27-27V26.8l-27-27h-8.4
				c-1.9,0-3.4-1.5-3.4-3.4c0-0.9,0.4-1.8,1-2.4s1.5-1,2.4-1h9.8c0.9,0,1.8,0.3,2.4,1l29,29c0.6,0.6,1,1.5,1,2.4v41
				c0,0.9-0.4,1.8-1,2.4l-29,29C65.1,98.3,64.2,98.7,63.3,98.7z M22.4,96.7h41c0.4,0,0.7-0.1,1-0.4l29-29c0.3-0.3,0.4-0.6,0.4-1v-41
				c0-0.4-0.1-0.7-0.4-1l-29-29C64-4.9,63.7-5,63.3-5h-9.9c-0.4,0-0.7,0.1-1,0.4c-0.3,0.3-0.4,0.6-0.4,1c0,0.8,0.6,1.4,1.4,1.4h9.3
				l28.1,28.1v39.8L62.7,93.9H22.9L-5.2,65.7V25.9L22.9-2.2h8.8c0,0,0,0,0,0c0.4,0,0.7-0.1,1-0.4c0.3-0.3,0.4-0.6,0.4-1
				c0-0.4-0.1-0.7-0.4-1c-0.3-0.3-0.6-0.4-1-0.4l0-1l0,1h-9.4c0,0,0,0,0,0c-0.4,0-0.7,0.1-1,0.4l-29,29C-7.9,24.6-8,25-8,25.4v41
				c0,0.4,0.1,0.7,0.4,1l29,29C21.6,96.5,22,96.7,22.4,96.7C22.4,96.7,22.4,96.7,22.4,96.7z"/>
		</g>
		<g id="Trazado_2261">
			<path class="st1" d="M45-4.5c-0.5-1.2-1.9-1.8-3.1-1.3c-1.2,0.5-1.8,1.9-1.3,3.1c0.5,1.2,1.9,1.8,3.1,1.3
				c0.1-0.1,0.2-0.1,0.4-0.2C45.1-2.2,45.5-3.4,45-4.5z"/>
		</g>
	</g>
</g>
</svg>
