<svg width="80" height="81" viewBox="0 0 80 81" fill="none" xmlns="http://www.w3.org/2000/svg">
<circle cx="40" cy="40.5" r="40" fill="#A63984"/>
<path d="M39.9905 25.5001C39.6237 25.5004 39.2702 25.6499 38.9999 25.9191L25.4427 38.8889C25.4385 38.893 25.4343 38.8971 25.4301 38.9013C24.9939 39.3391 24.8925 40.0536 25.1121 40.5751C25.3317 41.0969 25.8465 41.47 26.4303 41.4703H29.926V54.0055C29.926 54.8613 30.6124 55.4997 31.3651 55.5H48.6346C49.3873 55.5 50.0737 54.8613 50.0737 54.0058V41.4703H53.5697C54.1535 41.4703 54.6683 41.0972 54.8879 40.5754C55.1075 40.0539 55.0061 39.3391 54.5699 38.9013C54.5657 38.8971 54.5615 38.893 54.5573 38.8889L41.0004 25.9191C40.7253 25.6449 40.3641 25.4951 39.9905 25.5001ZM40.0001 33.4061C43.1802 33.4061 45.7851 36.2251 45.7851 39.6656C45.7851 40.494 45.633 41.2864 45.3591 42.012C45.3002 42.2033 45.2263 42.3889 45.1383 42.5666L40.7013 50.7601C40.2327 51.4492 39.8582 51.6009 39.2945 50.8024L35.2715 43.2564C34.5845 42.2074 34.2153 40.9525 34.2152 39.6656C34.2152 36.2248 36.8201 33.4058 40.0001 33.4058V33.4061ZM40.0001 36.3391C38.2877 36.3391 36.9257 37.8127 36.9257 39.6656C36.9257 41.5181 38.2877 42.9918 40.0001 42.9918C41.7126 42.9918 43.0746 41.5181 43.0746 39.6656C43.0746 37.8127 41.7126 36.3394 40.0001 36.3394V36.3391Z" fill="white"/>
</svg>
