<?xml version="1.0" encoding="utf-8"?>
<!-- Generator: Adobe Illustrator 24.0.1, SVG Export Plug-In . SVG Version: 6.00 Build 0)  -->
<svg version="1.1" id="Capa_1" xmlns="http://www.w3.org/2000/svg" xmlns:xlink="http://www.w3.org/1999/xlink" x="0px" y="0px"
	 viewBox="0 0 10.6 17.9" style="enable-background:new 0 0 10.6 17.9;" xml:space="preserve">
<style type="text/css">
	.st0{enable-background:new    ;}
	.st1{fill:#888888;}
</style>
<g class="st0">
	<path class="st1" d="M9.5,14.4c-0.8,0.7-1.8,1.1-3.3,1.3v2.1H4.7v-2.1c-0.9-0.1-1.8-0.2-2.7-0.5s-1.5-0.6-2-1.1l0.9-1.9
		c0.5,0.4,1,0.7,1.7,1s1.4,0.4,2.1,0.5V9.9C3.8,9.7,3,9.4,2.4,9.2S1.3,8.5,0.9,8c-0.4-0.5-0.6-1.2-0.6-2c0-1,0.4-1.9,1.1-2.6
		c0.7-0.7,1.8-1.2,3.2-1.3V0h1.6v2.1c0.7,0,1.4,0.2,2.1,0.4C9,2.7,9.6,2.9,10.1,3.3L9.3,5.2c-1-0.6-2-0.9-3.1-1V8
		c0.9,0.2,1.7,0.5,2.3,0.7C9.1,9,9.6,9.3,10,9.8c0.4,0.5,0.6,1.2,0.6,2C10.6,12.8,10.2,13.7,9.5,14.4z M3.2,7C3.6,7.2,4,7.4,4.7,7.6
		V4.2C4,4.3,3.5,4.5,3.2,4.8C2.9,5.1,2.7,5.5,2.7,5.9C2.7,6.4,2.9,6.7,3.2,7z M7.7,13.1C8,12.8,8.2,12.4,8.2,12S8,11.2,7.7,11
		c-0.3-0.3-0.8-0.5-1.5-0.7v3.4C6.9,13.6,7.4,13.4,7.7,13.1z"/>
</g>
</svg>
