<svg width="80" height="81" viewBox="0 0 80 81" fill="none" xmlns="http://www.w3.org/2000/svg">
<circle cx="40" cy="40.5" r="40" fill="#FFC700"/>
<g clip-path="url(#clip0_1240_3432)">
<path d="M39.9124 29.937C36.7788 29.9374 33.6736 31.2842 34 33.9754L34.8 39.825C34.9408 40.8546 35.636 42.5002 36.6752 42.5002H36.7492L37.6 52.7122C37.6368 53.1534 37.9568 53.5122 38.4 53.5122H41.6C42.0432 53.5122 42.3632 53.1534 42.4 52.7122L43.2508 42.5002H43.3248C44.3636 42.5002 45.0592 40.8542 45.2 39.825L46 33.9754C46.2092 31.2818 43.0464 29.9362 39.9124 29.937V29.937Z" fill="black"/>
<path d="M40.0096 40.8633L39.9904 40.9137C39.9968 40.8985 40.0012 40.8829 40.0076 40.8677L40.0096 40.8633V40.8633ZM33.6024 48.1229C27.952 48.9213 24 50.8313 24 53.6429C24 57.4301 30.6032 60.5001 40 60.5001C49.3968 60.5001 56 57.4301 56 53.6429C56 50.8313 52.0484 48.9213 46.3984 48.1229L45.6156 49.4557C49.874 50.0465 52.8 51.2881 52.8 52.7289C52.8 54.7489 47.0692 56.3861 40 56.3861C32.9308 56.3861 27.2 54.7489 27.2 52.7289C27.1996 51.2929 30.1064 50.0525 34.378 49.4593C34.12 49.0137 33.8604 48.5689 33.602 48.1229H33.6024Z" fill="black"/>
<path d="M40 28.9C42.3196 28.9 44.2 27.0196 44.2 24.7C44.2 22.3804 42.3196 20.5 40 20.5C37.6804 20.5 35.8 22.3804 35.8 24.7C35.8 27.0196 37.6804 28.9 40 28.9Z" fill="black"/>
</g>
<defs>
<clipPath id="clip0_1240_3432">
<rect width="40" height="40" fill="white" transform="translate(20 20.5)"/>
</clipPath>
</defs>
</svg>
