<svg id="viaje-ahora" xmlns="http://www.w3.org/2000/svg" width="34.441" height="13.778" viewBox="0 0 34.441 13.778">
  <path id="Trazado_3026" data-name="Trazado 3026" d="M242.3,86.891H240v1.148h2.3Zm0,0" transform="translate(-222.205 -81.724)" fill="#333"/>
  <path id="Trazado_3027" data-name="Trazado 3027" d="M.493,3.942l3.9-.557A19.679,19.679,0,0,1,6.6,2.214a19.331,19.331,0,0,1,8-1.722h.677a19.512,19.512,0,0,1,9.317,2.376l1.968,1.073a13.563,13.563,0,0,1,6.564,1.779A2.621,2.621,0,0,1,34.441,7.99V11.4a.574.574,0,0,1-.574.574H31.94a3.431,3.431,0,0,1-6.477,0H10.127a3.431,3.431,0,0,1-6.477,0H3.444a.577.577,0,0,1-.214-.041l-1.859-.746A2.171,2.171,0,0,1,0,9.16V4.51A.574.574,0,0,1,.493,3.942Zm25.959,7.342a2.3,2.3,0,1,0-.046-.459A2.3,2.3,0,0,0,26.452,11.284Zm-10.379-.459h9.184a3.444,3.444,0,1,1,6.888,0h1.148V7.99a1.468,1.468,0,0,0-.739-1.273,12.411,12.411,0,0,0-6.149-1.633H16.073Zm0-6.888h8.081l-.111-.06a18.354,18.354,0,0,0-7.97-2.211Zm-1.148-2.3H14.6A18.168,18.168,0,0,0,7.846,2.934l1,1h6.077ZM4.639,11.284a2.3,2.3,0,1,0-.046-.459A2.3,2.3,0,0,0,4.639,11.284ZM1.148,5.658H2.87V6.806H1.148V9.16a1.027,1.027,0,0,0,.65.959l1.646.661c0-.053.007-.105.01-.158s0-.115.01-.172.017-.115.026-.172.016-.115.028-.167.028-.11.043-.165.026-.11.044-.163.038-.1.057-.157.037-.106.057-.158.047-.1.071-.147.048-.1.075-.152.057-.091.083-.137.057-.1.09-.145S4.1,8.8,4.134,8.76s.067-.093.1-.137.071-.079.107-.115.075-.085.115-.125.079-.072.118-.107S4.66,8.2,4.7,8.161s.088-.066.131-.1.087-.068.133-.1.1-.057.147-.089.09-.057.136-.082.1-.051.157-.076.094-.048.143-.068.115-.043.172-.063.095-.037.144-.052c.065-.02.132-.035.2-.051.044-.01.086-.024.13-.033.071-.014.143-.022.215-.033.043-.006.083-.015.126-.019a3.489,3.489,0,0,1,.35-.018,3.448,3.448,0,0,1,3.444,3.444h4.594V5.084H8.61A.573.573,0,0,1,8.2,4.916L6.716,3.427a18.407,18.407,0,0,0-1.82,1,.576.576,0,0,1-.223.082l-3.526.5Zm0,0" transform="translate(0 -0.492)" fill="#333"/>
</svg>
