<svg id="viaje-programado" xmlns="http://www.w3.org/2000/svg" width="20.402" height="20.402" viewBox="0 0 20.402 20.402">
  <path id="Trazado_2987" data-name="Trazado 2987" d="M19.207,11.646V1.833a.6.6,0,0,0-.6-.6H15.581V.6a.6.6,0,1,0-1.2,0v.638H11.994V.6a.6.6,0,0,0-1.2,0v.638H8.408V.6a.6.6,0,0,0-1.2,0v.638H4.822V.6a.6.6,0,0,0-1.2,0v.638H.6a.6.6,0,0,0-.6.6V17.414a.6.6,0,0,0,.6.6h9.954a5.378,5.378,0,1,0,8.655-6.366ZM3.626,2.431v.6a.6.6,0,1,0,1.2,0v-.6H7.213v.6a.6.6,0,1,0,1.2,0v-.6H10.8v.6a.6.6,0,1,0,1.2,0v-.6h2.391v.6a.6.6,0,1,0,1.2,0v-.6h2.431V4.822H1.2V2.431ZM1.2,16.816V6.017H18.011v4.535a5.373,5.373,0,0,0-7.5,1.546.594.594,0,0,0-.269-.064h-1.2a.6.6,0,1,0,0,1.2h.905a5.335,5.335,0,0,0-.274,1.2H9.046a.6.6,0,1,0,0,1.2h.631a5.326,5.326,0,0,0,.274,1.2Zm13.827,2.391a4.184,4.184,0,1,1,4.184-4.184A4.189,4.189,0,0,1,15.023,19.207Zm0,0" fill="#333"/>
  <path id="Trazado_2988" data-name="Trazado 2988" d="M364.989,304.391H363.2V302.6a.6.6,0,0,0-1.2,0v2.391a.6.6,0,0,0,.6.6h2.391a.6.6,0,1,0,0-1.2Zm0,0" transform="translate(-347.575 -289.966)" fill="#333"/>
  <path id="Trazado_2989" data-name="Trazado 2989" d="M92.793,182H91.6a.6.6,0,1,0,0,1.2h1.2a.6.6,0,1,0,0-1.2Zm0,0" transform="translate(-87.374 -174.748)" fill="#333"/>
  <path id="Trazado_2990" data-name="Trazado 2990" d="M92.793,242H91.6a.6.6,0,1,0,0,1.2h1.2a.6.6,0,1,0,0-1.2Zm0,0" transform="translate(-87.374 -232.357)" fill="#333"/>
  <path id="Trazado_2991" data-name="Trazado 2991" d="M92.793,302H91.6a.6.6,0,1,0,0,1.2h1.2a.6.6,0,1,0,0-1.2Zm0,0" transform="translate(-87.374 -289.966)" fill="#333"/>
  <path id="Trazado_2992" data-name="Trazado 2992" d="M212.6,183.2h1.2a.6.6,0,0,0,0-1.2h-1.2a.6.6,0,0,0,0,1.2Zm0,0" transform="translate(-203.552 -174.748)" fill="#333"/>
  <path id="Trazado_2993" data-name="Trazado 2993" d="M212.6,243.2h1.2a.6.6,0,0,0,0-1.2h-1.2a.6.6,0,0,0,0,1.2Zm0,0" transform="translate(-203.552 -232.357)" fill="#333"/>
  <path id="Trazado_2994" data-name="Trazado 2994" d="M92.793,362H91.6a.6.6,0,1,0,0,1.2h1.2a.6.6,0,1,0,0-1.2Zm0,0" transform="translate(-87.374 -347.575)" fill="#333"/>
  <path id="Trazado_2995" data-name="Trazado 2995" d="M332.6,183.2h1.2a.6.6,0,0,0,0-1.2h-1.2a.6.6,0,0,0,0,1.2Zm0,0" transform="translate(-318.77 -174.748)" fill="#333"/>
</svg>
