<?xml version="1.0" encoding="utf-8"?>
<!-- Generator: Adobe Illustrator 25.4.0, SVG Export Plug-In . SVG Version: 6.00 Build 0)  -->
<svg version="1.1" id="Logo_MAGIISsin_bajada" xmlns="http://www.w3.org/2000/svg" xmlns:xlink="http://www.w3.org/1999/xlink"
	 x="0px" y="0px" viewBox="0 0 598.7 133.9" style="enable-background:new 0 0 598.7 133.9;" xml:space="preserve">
<style type="text/css">
	.st0{fill:#D1D3D4;}
</style>
<g id="Grupo_1529">
	<path id="Trazado_2808" class="st0" d="M598.7,99.4c-1,0.3-0.9,1.2-1,1.9c-3.2,13.7-11.9,22.6-24.6,27.6
		c-11.6,4.6-23.8,5.6-36.2,4.3c-10.5-1.1-20.3-3.9-29-10.1c-11.6-8.3-16.9-19.7-16.8-34.2h26.7c0.8,0.5,0.4,1.8,0.5,2.8
		c1.3,9.3,6.4,15.3,15.3,18.2c8.6,2.8,17.8,2.8,26.3,0c2.1-0.7,4.1-1.7,5.9-3c5.8-4,7.3-12.1,3.2-17.9c-0.8-1.1-1.8-2.1-2.9-3
		c-3.9-3-8.4-4.5-13-5.8c-8.3-2.3-16.6-4.4-24.9-6.7c-6.5-1.7-12.6-4.3-18.4-7.8c-12-7.2-16.1-19.9-14.2-32.4
		c1.9-12.5,9-21.3,20.1-26.7c19.7-9.5,39.6-8.8,58.9,0.8c13.3,6.6,19.4,18.2,19.5,33.4h-26.8c-0.3-1.4-0.7-2.9-1.1-4.4
		c-1.1-5.8-5.2-10.5-10.8-12.3c-6.9-2.6-14.5-3-21.6-1c-5.3,1.5-9.6,4.3-11,10.1c-1.4,5.9,0.6,10.7,5.8,13.1
		c6.3,2.9,12.9,4.4,19.5,6.2c8.1,2.3,16.4,3.8,24.4,6.7c6.5,2.4,12.5,5.7,17.2,10.7c4.2,4.4,7,9.9,8,15.9c0.1,0.8-0.1,1.6,0.9,2
		L598.7,99.4z"/>
	<path id="Trazado_2809" class="st0" d="M110.1,41.7C105,56.5,99.8,71.3,94.7,86.1c-5.1,14.8-10.3,29.6-15.5,44.6H57.4
		c-5.1-14.4-10.3-29.1-15.4-43.8c-5.2-14.8-10.4-29.5-16.3-44.2v88H0V4.1h39.2l30,87.7L97.6,4h39.2v126.8c-4,0-8.2,0.1-12.5,0.1
		c-4.3,0-8.6,0-13.2,0V41.7L110.1,41.7z"/>
	<path id="Trazado_2810" class="st0" d="M373.8,45.5h-25.6c-0.7-0.4-1.2-1.1-1.4-1.9c-4.1-14.9-17.5-20.9-31.1-19.1
		c-12.8,1.6-21.4,8.8-25.9,20.5c-5.9,15.3-6,30.7,0.4,45.9c8.8,20.9,31.6,23.7,47,15.7c9-4.7,12.7-13.2,13.5-23.5H323V62.4h53.3
		v68.3h-17.6l-3.1-13.4c-1.7,0.8-2.4,2-3.3,3c-8.2,8.9-19.9,13.9-32,13.6c-19.2-0.1-35.6-6.5-48-21.5c-8.1-9.8-12.3-21.3-13.9-33.9
		c-1.8-14.2-0.6-27.9,5.1-41c9.9-22.9,27.6-34.9,52.5-36.6c12.8-0.8,24.8,1.5,35.7,8.3c12.7,8,20.3,19.4,22.3,34.4
		C373.9,44.2,373.9,44.9,373.8,45.5z"/>
	<path id="Trazado_2811" class="st0" d="M267,130.7h-29.1l-9.6-27.9h-47.9l-10.1,27.9h-28.4L190.3,3.9h29.1
		C235.1,46,251,88.2,267,130.7z M187.7,81.7h33.1l-16.3-47.3L187.7,81.7z"/>
	<path id="Trazado_2812" class="st0" d="M447.6,38.3h37.5c-6.5,31-12.9,61.6-19.4,92.3h-37.5C434.7,99.8,441.2,69.1,447.6,38.3z"/>
	<path id="Trazado_2813" class="st0" d="M435.9,38.4c-6.5,31-12.9,61.6-19.3,92.2H391c-0.7-1.5-0.4-3-0.4-4.3c0-20.5,0-41,0-61.5
		c0-7.4,2.5-14.3,3.6-21.5c0.2-1.5,0.7-3.1,1.1-4.9L435.9,38.4z"/>
	<path id="Trazado_2814" class="st0" d="M438.4,25.6h-40.6l5.1-24.9h40.6C442.1,9,440.3,17.2,438.4,25.6z"/>
	<path id="Trazado_2815" class="st0" d="M492.6,0.5c-0.2,1.8-0.2,3.1-0.5,4.3c-1.5,6.9-3,13.9-4.6,20.9h-37.5l5.3-25.2L492.6,0.5z"
		/>
</g>
</svg>
