<?xml version="1.0" encoding="utf-8"?>
<!-- Generator: Adobe Illustrator 24.1.2, SVG Export Plug-In . SVG Version: 6.00 Build 0)  -->
<svg version="1.1" id="Capa_1" xmlns="http://www.w3.org/2000/svg" xmlns:xlink="http://www.w3.org/1999/xlink" x="0px" y="0px"
	 viewBox="0 0 308 221" style="enable-background:new 0 0 308 221;" xml:space="preserve">
<style type="text/css">
	.st0{fill:#D6D6D6;}
	.st1{fill:#000521;}
	.st2{fill:#8B8C90;}
	.st3{fill:#BBBCBE;}
	.st4{fill:#FFFFFF;}
	.st5{fill:#333333;}
	.st6{opacity:5.000000e-02;}
	.st7{fill:none;}
	.st8{fill:#A63984;}
</style>
<g id="credit-card-back" transform="translate(-26 -156)">
	<g id="Grupo_1503" transform="translate(-1837 -2231)">
		<g id="Rectángulo_471">
			<path class="st0" d="M1873,2387h288c5.5,0,10,4.5,10,10v172c0,5.5-4.5,10-10,10h-288c-5.5,0-10-4.5-10-10v-172
				C1863,2391.5,1867.5,2387,1873,2387z"/>
		</g>
		<g id="Rectángulo_492">
			<rect x="1863" y="2417" class="st1" width="308" height="46"/>
		</g>
		<g id="Grupo_1504">
			<g id="Rectángulo_478">
				<rect x="1892" y="2483" class="st2" width="195" height="3"/>
			</g>
			<g id="Rectángulo_485">
				<rect x="1892" y="2495" class="st2" width="195" height="3"/>
			</g>
			<g id="Rectángulo_489">
				<rect x="1892" y="2507" class="st2" width="195" height="3"/>
			</g>
			<g id="Rectángulo_480">
				<rect x="1892" y="2489" class="st2" width="195" height="3"/>
			</g>
			<g id="Rectángulo_482">
				<rect x="1892" y="2501" class="st2" width="195" height="3"/>
			</g>
			<g id="Rectángulo_486">
				<rect x="1892" y="2513" class="st2" width="195" height="3"/>
			</g>
			<g id="Rectángulo_479">
				<rect x="1892" y="2486" class="st3" width="195" height="3"/>
			</g>
			<g id="Rectángulo_484">
				<rect x="1892" y="2498" class="st3" width="195" height="3"/>
			</g>
			<g id="Rectángulo_488">
				<rect x="1892" y="2510" class="st3" width="195" height="3"/>
			</g>
			<g id="Rectángulo_481">
				<rect x="1892" y="2492" class="st3" width="195" height="3"/>
			</g>
			<g id="Rectángulo_483">
				<rect x="1892" y="2504" class="st3" width="195" height="3"/>
			</g>
		</g>
		<g id="Rectángulo_493">
			<rect x="2087" y="2483" class="st4" width="56" height="33"/>
		</g>
		<g id="Elipse_179">
			<circle class="st5" cx="2101.5" cy="2499.5" r="3.5"/>
		</g>
		<g id="Elipse_180">
			<circle class="st5" cx="2115.5" cy="2499.5" r="3.5"/>
		</g>
		<g id="Elipse_181">
			<circle class="st5" cx="2129.5" cy="2499.5" r="3.5"/>
		</g>
		<g id="Unión_3" class="st6">
			<path d="M2010.5,2579H1873c-5.5,0-10-4.5-10-10v-172c0-5.5,4.5-10,10-10h138v1.9l49.4,190.1H2010.5z"/>
		</g>
	</g>
	<g id="Rectángulo_474" transform="translate(247 249)">
		<g>
			<path class="st7" d="M2,0h58c1.1,0,2,0.9,2,2v35c0,1.1-0.9,2-2,2H2c-1.1,0-2-0.9-2-2V2C0,0.9,0.9,0,2,0z"/>
		</g>
		<g>
			<path class="st8" d="M60,39H2c-1.1,0-2-0.9-2-2V2c0-1.1,0.9-2,2-2h58c1.1,0,2,0.9,2,2v35C62,38.1,61.1,39,60,39z M2,2L2,2v35h58
				V2H2z"/>
		</g>
	</g>
	<g id="Línea_107">
		<path class="st8" d="M278.5,375c-0.8,0-1.5-0.7-1.5-1.5l0-1c0-0.8,0.7-1.5,1.5-1.5c0,0,0,0,0,0c0.8,0,1.5,0.7,1.5,1.5l0,1
			C280,374.3,279.3,375,278.5,375C278.5,375,278.5,375,278.5,375z M278.4,368c-0.8,0-1.5-0.7-1.5-1.5l0-1c0-0.8,0.7-1.5,1.5-1.5
			c0.9,0,1.5,0.7,1.5,1.5l0,1C279.9,367.3,279.2,368,278.4,368C278.4,368,278.4,368,278.4,368z M278.3,361c-0.8,0-1.5-0.7-1.5-1.5
			l0-1c0-0.8,0.7-1.5,1.5-1.5c0.8,0,1.5,0.7,1.5,1.5l0,1C279.8,360.3,279.2,361,278.3,361C278.3,361,278.3,361,278.3,361z
			 M278.2,354c-0.8,0-1.5-0.7-1.5-1.5l0-1c0-0.8,0.7-1.5,1.5-1.5c0,0,0,0,0,0c0.8,0,1.5,0.7,1.5,1.5l0,1
			C279.7,353.3,279.1,354,278.2,354C278.2,354,278.2,354,278.2,354z M278.2,347c-0.8,0-1.5-0.7-1.5-1.5l0-1c0-0.8,0.7-1.5,1.5-1.5
			c0.8,0,1.5,0.7,1.5,1.5l0,1C279.7,346.3,279,347,278.2,347C278.2,347,278.2,347,278.2,347z M278.1,340c-0.8,0-1.5-0.7-1.5-1.5l0-1
			c0-0.8,0.7-1.5,1.5-1.5c0,0,0,0,0,0c0.8,0,1.5,0.7,1.5,1.5l0,1C279.6,339.3,278.9,340,278.1,340C278.1,340,278.1,340,278.1,340z
			 M278,333c-0.8,0-1.5-0.7-1.5-1.5l0-1c0-0.8,0.7-1.5,1.5-1.5c0,0,0,0,0,0c0.8,0,1.5,0.7,1.5,1.5l0,1
			C279.5,332.3,278.8,333,278,333C278,333,278,333,278,333z M277.9,326c-0.8,0-1.5-0.7-1.5-1.5l0-1c0-0.8,0.7-1.5,1.5-1.5
			c0,0,0,0,0,0c0.8,0,1.5,0.7,1.5,1.5l0,1C279.4,325.3,278.8,326,277.9,326C277.9,326,277.9,326,277.9,326z M277.8,319
			c-0.8,0-1.5-0.7-1.5-1.5l0-1c0-0.8,0.7-1.5,1.5-1.5c0,0,0,0,0,0c0.8,0,1.5,0.7,1.5,1.5l0,1C279.3,318.3,278.7,319,277.8,319
			C277.8,319,277.8,319,277.8,319z M277.8,312c-0.8,0-1.5-0.7-1.5-1.5l0-1c0-0.8,0.7-1.5,1.5-1.5c0.8,0,1.5,0.7,1.5,1.5l0,1
			C279.3,311.3,278.6,312,277.8,312C277.8,312,277.8,312,277.8,312z M277.7,305c-0.8,0-1.5-0.7-1.5-1.5l0-1c0-0.8,0.7-1.5,1.5-1.5
			c0,0,0,0,0,0c0.8,0,1.5,0.7,1.5,1.5l0,1C279.2,304.3,278.5,305,277.7,305C277.7,305,277.7,305,277.7,305z M277.6,298
			c-0.8,0-1.5-0.7-1.5-1.5l0-1c0-0.8,0.7-1.5,1.5-1.5c0.8,0,1.5,0.7,1.5,1.5l0,1C279.1,297.3,278.4,298,277.6,298
			C277.6,298,277.6,298,277.6,298z M277.5,291c-0.8,0-1.5-0.7-1.5-1.5l0-1c0-0.8,0.7-1.5,1.5-1.5c0,0,0,0,0,0c0.8,0,1.5,0.7,1.5,1.5
			l0,1C279,290.3,278.4,291,277.5,291C277.5,291,277.5,291,277.5,291z"/>
	</g>
</g>
</svg>
