<?xml version="1.0" encoding="utf-8"?>
<!-- Generator: Adobe Illustrator 24.1.2, SVG Export Plug-In . SVG Version: 6.00 Build 0)  -->
<svg version="1.1" id="Capa_1" xmlns="http://www.w3.org/2000/svg" xmlns:xlink="http://www.w3.org/1999/xlink" x="0px" y="0px"
	 viewBox="0 0 308 222" style="enable-background:new 0 0 308 222;" xml:space="preserve">
<style type="text/css">
	.st0{fill:#F3F3F3;}
	.st1{fill:#EBEBEB;}
	.st2{fill:#D8D8D8;}
	.st3{enable-background:new    ;}
	.st4{fill:#666666;}
	.st5{fill:none;}
	.st6{fill:#A63984;}
</style>
<g id="credit-card-front" transform="translate(-26 -155)">
	<g id="Grupo_1502" transform="translate(-5 -38)">
		<g id="Grupo_1501" transform="translate(12 103)">
			<g id="Rectángulo_471">
				<path class="st0" d="M29,90h288c5.5,0,10,4.5,10,10v172c0,5.5-4.5,10-10,10H29c-5.5,0-10-4.5-10-10V100C19,94.5,23.5,90,29,90z"
					/>
			</g>
			<g id="Unión_3">
				<path class="st1" d="M166.5,282H29c-5.5,0-10-4.5-10-10V100c0-5.5,4.5-10,10-10h138v1.9L216.4,282H166.5z"/>
			</g>
		</g>
		<g id="Rectángulo_473">
			<path class="st2" d="M51,213h70c1.1,0,2,0.9,2,2v46c0,1.1-0.9,2-2,2H51c-1.1,0-2-0.9-2-2v-46C49,213.9,49.9,213,51,213z"/>
		</g>
		<g class="st3">
			<path class="st4" d="M57.4,297.4v13.1h2.4c0.6,0,1,0.1,1.2,0.3s0.4,0.5,0.4,0.9c0,0.4-0.1,0.6-0.4,0.9s-0.7,0.3-1.2,0.3h-7.3
				c-0.6,0-1-0.1-1.2-0.3s-0.4-0.5-0.4-0.9c0-0.4,0.1-0.6,0.4-0.9s0.7-0.3,1.2-0.3H55v-10l-2.1,0.6c-0.3,0.1-0.6,0.1-0.8,0.1
				c-0.3,0-0.6-0.1-0.8-0.4S51,300.4,51,300c0-0.3,0.1-0.6,0.2-0.8s0.5-0.3,1-0.5L57.4,297.4z"/>
			<path class="st4" d="M68.4,310.6h5.3c0.3-0.2,0.6-0.4,0.8-0.4c0.4,0,0.7,0.1,0.9,0.4s0.3,0.7,0.3,1.2v1.1H64.7v-2.5
				c4.3-3.6,6.9-5.9,7.8-6.9c0.5-0.5,0.7-1,0.7-1.5c0-0.6-0.3-1.1-0.8-1.6s-1.2-0.7-2-0.7c-0.9,0-1.6,0.3-2.1,0.8
				c-0.3,0.3-0.5,0.7-0.7,1.2c-0.1,0.3-0.3,0.6-0.5,0.7s-0.4,0.2-0.7,0.2c-0.3,0-0.6-0.1-0.8-0.4s-0.4-0.5-0.4-0.8
				c0-0.5,0.2-1.1,0.7-1.8s1.1-1.3,1.9-1.7s1.7-0.6,2.7-0.6c1.5,0,2.8,0.5,3.7,1.4s1.5,2,1.5,3.3c0,0.7-0.1,1.3-0.4,1.8
				s-0.9,1.3-2,2.3C72.4,307.1,70.8,308.6,68.4,310.6z"/>
			<path class="st4" d="M88.4,305c0.7,0.5,1.2,1,1.6,1.7s0.5,1.3,0.5,2.1c0,0.9-0.2,1.6-0.7,2.4s-1.1,1.3-2,1.6s-2,0.6-3.5,0.6
				c-1.9,0-3.3-0.3-4.2-0.9c-0.5-0.3-0.8-0.7-0.8-1.2c0-0.3,0.1-0.6,0.3-0.9s0.5-0.4,0.8-0.4c0.2,0,0.5,0.1,0.7,0.2
				c0.3,0.2,0.7,0.4,1,0.5c0.5,0.1,1.1,0.2,1.9,0.2c1.4,0,2.4-0.2,3-0.5s0.9-0.9,0.9-1.5c0-0.5-0.2-1-0.5-1.4s-0.8-0.8-1.5-1.1
				c-0.4-0.1-0.9-0.2-1.8-0.3c-0.4,0-0.7-0.1-0.9-0.4s-0.3-0.5-0.3-0.8c0-0.3,0.1-0.6,0.4-0.9s0.5-0.4,0.9-0.4c0.8,0,1.2,0,1.3,0
				c0.3,0,0.6-0.1,0.9-0.3s0.6-0.4,0.8-0.7s0.3-0.6,0.3-0.9c0-0.5-0.2-0.9-0.7-1.3s-1.1-0.6-2-0.6c-1.2,0-2,0.3-2.6,1
				c-0.2,0.2-0.3,0.3-0.4,0.4c-0.2,0.1-0.3,0.1-0.6,0.1c-0.3,0-0.6-0.1-0.8-0.4s-0.4-0.5-0.4-0.9c0-0.5,0.4-1.1,1.1-1.6
				c1-0.7,2.4-1.1,3.9-1.1c1.5,0,2.7,0.4,3.6,1.3s1.3,1.9,1.3,3c0,0.6-0.1,1.2-0.4,1.7S89,304.5,88.4,305z"/>
			<path class="st4" d="M97.4,300.2v2.9c0.9-0.3,1.7-0.4,2.4-0.4c1.5,0,2.7,0.5,3.7,1.5s1.5,2.3,1.5,3.9c0,1.6-0.5,2.9-1.5,3.9
				s-2.5,1.4-4.5,1.4c-1.8,0-3.2-0.3-4.3-1c-0.6-0.4-0.9-0.8-0.9-1.3c0-0.3,0.1-0.6,0.4-0.8s0.5-0.4,0.8-0.4c0.3,0,0.6,0.1,0.9,0.4
				s0.7,0.4,1,0.5c0.5,0.1,1.1,0.2,1.9,0.2c1.5,0,2.4-0.2,3-0.7s0.8-1.2,0.8-2.1c0-0.9-0.3-1.7-0.8-2.2s-1.2-0.8-2-0.8
				c-0.9,0-1.9,0.3-3,0.8c-0.3,0.1-0.5,0.2-0.7,0.2c-0.3,0-0.6-0.1-0.9-0.4s-0.3-0.6-0.3-1v-6.9h7.3c0.6,0,1,0.1,1.2,0.3
				s0.4,0.5,0.4,0.9c0,0.4-0.1,0.6-0.4,0.9s-0.7,0.3-1.2,0.3H97.4z"/>
			<path class="st4" d="M131.7,297.8v9.4c0.5,0,0.9,0.1,1.1,0.3s0.4,0.5,0.4,0.9s-0.1,0.6-0.4,0.9s-0.6,0.3-1.1,0.3v1
				c0.5,0,0.9,0.1,1.1,0.3s0.4,0.5,0.4,0.9s-0.1,0.6-0.4,0.9s-0.7,0.3-1.2,0.3h-3.2c-0.6,0-1-0.1-1.2-0.3s-0.4-0.5-0.4-0.9
				c0-0.4,0.1-0.6,0.4-0.9s0.7-0.3,1.2-0.3h0.9v-1h-6.5v-2l5.8-9.8H131.7z M129.3,307.2v-5.9l-3.5,5.9H129.3z"/>
			<path class="st4" d="M146,305.3c0.6,0.5,1.1,1,1.4,1.6s0.5,1.3,0.5,2c0,0.8-0.2,1.5-0.6,2.2s-1,1.2-1.9,1.6s-1.8,0.6-2.8,0.6
				s-2-0.2-2.8-0.6s-1.4-0.9-1.8-1.6s-0.6-1.4-0.6-2.2c0-0.7,0.2-1.4,0.5-2s0.8-1.1,1.4-1.6c-0.5-0.5-0.9-1-1.2-1.6
				s-0.4-1.2-0.4-1.8c0-1.2,0.5-2.3,1.4-3.2s2.1-1.3,3.6-1.3s2.7,0.4,3.6,1.3s1.4,1.9,1.4,3.2c0,0.6-0.1,1.2-0.4,1.8
				S146.6,304.8,146,305.3z M145.5,309.1c0-0.6-0.3-1.2-0.8-1.7s-1.2-0.8-2-0.8s-1.5,0.3-2,0.8s-0.8,1.1-0.8,1.7
				c0,0.5,0.2,0.9,0.7,1.3s1.2,0.6,2.1,0.6c1,0,1.7-0.2,2.1-0.6S145.5,309.6,145.5,309.1z M145.2,302c0-0.6-0.2-1.1-0.7-1.5
				s-1.1-0.6-1.9-0.6c-0.8,0-1.4,0.2-1.9,0.6s-0.7,0.9-0.7,1.5c0,0.6,0.2,1.1,0.7,1.5s1.1,0.6,1.9,0.6c0.8,0,1.4-0.2,1.9-0.6
				S145.2,302.6,145.2,302z"/>
			<path class="st4" d="M155,300.2v2.9c0.9-0.3,1.7-0.4,2.4-0.4c1.5,0,2.7,0.5,3.7,1.5s1.5,2.3,1.5,3.9c0,1.6-0.5,2.9-1.5,3.9
				s-2.5,1.4-4.5,1.4c-1.8,0-3.2-0.3-4.3-1c-0.6-0.4-0.9-0.8-0.9-1.3c0-0.3,0.1-0.6,0.4-0.8s0.5-0.4,0.8-0.4c0.3,0,0.6,0.1,0.9,0.4
				s0.7,0.4,1,0.5c0.5,0.1,1.1,0.2,1.9,0.2c1.5,0,2.4-0.2,3-0.7s0.8-1.2,0.8-2.1c0-0.9-0.3-1.7-0.8-2.2s-1.2-0.8-2-0.8
				c-0.9,0-1.9,0.3-3,0.8c-0.3,0.1-0.5,0.2-0.7,0.2c-0.3,0-0.6-0.1-0.9-0.4s-0.3-0.6-0.3-1v-6.9h7.3c0.6,0,1,0.1,1.2,0.3
				s0.4,0.5,0.4,0.9c0,0.4-0.1,0.6-0.4,0.9s-0.7,0.3-1.2,0.3H155z"/>
			<path class="st4" d="M169.2,304.8c0.6-0.5,1.1-0.8,1.7-1.1s1.1-0.3,1.7-0.3c1.3,0,2.4,0.5,3.3,1.5s1.4,2.3,1.4,3.8
				c0,1.4-0.4,2.5-1.3,3.4s-2.1,1.3-3.6,1.3c-1.3,0-2.3-0.3-3.1-0.9s-1.4-1.5-1.8-2.7s-0.6-2.6-0.6-4.1c0-1.8,0.4-3.3,1.2-4.5
				s1.8-2.1,2.9-2.8s2.3-1,3.5-1c1,0,1.7,0.2,2.3,0.6c0.4,0.3,0.5,0.6,0.5,1c0,0.4-0.1,0.6-0.4,0.9s-0.5,0.4-0.8,0.4
				c-0.2,0-0.5-0.1-0.8-0.3c-0.2-0.1-0.4-0.2-0.6-0.2c-0.8,0-1.6,0.2-2.4,0.7s-1.5,1.1-2.1,2C169.7,303.1,169.4,303.9,169.2,304.8z
				 M169.5,308.5c0.3,0.9,0.6,1.6,1,1.9s1,0.5,1.8,0.5s1.4-0.2,1.8-0.6s0.6-1,0.6-1.7c0-0.8-0.2-1.5-0.7-2s-1-0.8-1.6-0.8
				c-0.5,0-1,0.2-1.6,0.7S169.9,307.7,169.5,308.5z"/>
			<path class="st4" d="M201.4,297.4v13.1h2.4c0.6,0,1,0.1,1.2,0.3s0.4,0.5,0.4,0.9c0,0.4-0.1,0.6-0.4,0.9s-0.7,0.3-1.2,0.3h-7.3
				c-0.6,0-1-0.1-1.2-0.3s-0.4-0.5-0.4-0.9c0-0.4,0.1-0.6,0.4-0.9s0.7-0.3,1.2-0.3h2.4v-10l-2.1,0.6c-0.3,0.1-0.6,0.1-0.8,0.1
				c-0.3,0-0.6-0.1-0.8-0.4s-0.3-0.5-0.3-0.9c0-0.3,0.1-0.6,0.2-0.8s0.5-0.3,1-0.5L201.4,297.4z"/>
			<path class="st4" d="M212.4,310.6h5.3c0.3-0.2,0.6-0.4,0.8-0.4c0.4,0,0.7,0.1,0.9,0.4s0.3,0.7,0.3,1.2v1.1h-10.9v-2.5
				c4.3-3.6,6.9-5.9,7.8-6.9c0.5-0.5,0.7-1,0.7-1.5c0-0.6-0.3-1.1-0.8-1.6s-1.2-0.7-2-0.7c-0.9,0-1.6,0.3-2.1,0.8
				c-0.3,0.3-0.5,0.7-0.7,1.2c-0.1,0.3-0.3,0.6-0.5,0.7s-0.4,0.2-0.7,0.2c-0.3,0-0.6-0.1-0.8-0.4s-0.4-0.5-0.4-0.8
				c0-0.5,0.2-1.1,0.7-1.8s1.1-1.3,1.9-1.7s1.7-0.6,2.7-0.6c1.5,0,2.8,0.5,3.7,1.4s1.5,2,1.5,3.3c0,0.7-0.1,1.3-0.4,1.8
				s-0.9,1.3-2,2.3C216.4,307.1,214.8,308.6,212.4,310.6z"/>
			<path class="st4" d="M232.5,305c0.7,0.5,1.2,1,1.6,1.7s0.5,1.3,0.5,2.1c0,0.9-0.2,1.6-0.7,2.4s-1.1,1.3-2,1.6s-2,0.6-3.5,0.6
				c-1.9,0-3.3-0.3-4.2-0.9c-0.5-0.3-0.8-0.7-0.8-1.2c0-0.3,0.1-0.6,0.3-0.9s0.5-0.4,0.8-0.4c0.2,0,0.5,0.1,0.7,0.2
				c0.3,0.2,0.7,0.4,1,0.5c0.5,0.1,1.1,0.2,1.9,0.2c1.4,0,2.4-0.2,3-0.5s0.9-0.9,0.9-1.5c0-0.5-0.2-1-0.5-1.4s-0.8-0.8-1.5-1.1
				c-0.4-0.1-0.9-0.2-1.8-0.3c-0.4,0-0.7-0.1-0.9-0.4s-0.3-0.5-0.3-0.8c0-0.3,0.1-0.6,0.4-0.9s0.5-0.4,0.9-0.4c0.8,0,1.2,0,1.3,0
				c0.3,0,0.6-0.1,0.9-0.3s0.6-0.4,0.8-0.7s0.3-0.6,0.3-0.9c0-0.5-0.2-0.9-0.7-1.3s-1.1-0.6-2-0.6c-1.2,0-2,0.3-2.6,1
				c-0.2,0.2-0.3,0.3-0.4,0.4c-0.2,0.1-0.3,0.1-0.6,0.1c-0.3,0-0.6-0.1-0.8-0.4s-0.4-0.5-0.4-0.9c0-0.5,0.4-1.1,1.1-1.6
				c1-0.7,2.4-1.1,3.9-1.1c1.5,0,2.7,0.4,3.6,1.3s1.3,1.9,1.3,3c0,0.6-0.1,1.2-0.4,1.7S233,304.5,232.5,305z"/>
			<path class="st4" d="M247,297.8v9.4c0.5,0,0.9,0.1,1.1,0.3s0.4,0.5,0.4,0.9s-0.1,0.6-0.4,0.9s-0.6,0.3-1.1,0.3v1
				c0.5,0,0.9,0.1,1.1,0.3s0.4,0.5,0.4,0.9s-0.1,0.6-0.4,0.9s-0.7,0.3-1.2,0.3h-3.2c-0.6,0-1-0.1-1.2-0.3s-0.4-0.5-0.4-0.9
				c0-0.4,0.1-0.6,0.4-0.9s0.7-0.3,1.2-0.3h0.9v-1H238v-2l5.8-9.8H247z M244.6,307.2v-5.9l-3.5,5.9H244.6z"/>
			<path class="st4" d="M274.7,300.2h-5.5c0,0.5-0.2,0.8-0.4,1s-0.5,0.3-0.8,0.3c-0.4,0-0.7-0.1-0.9-0.4s-0.3-0.7-0.3-1.2v-2.1h10.4
				v2.4l-3.9,11.6c-0.2,0.5-0.3,0.8-0.5,1s-0.4,0.2-0.7,0.2c-0.3,0-0.6-0.1-0.9-0.4s-0.4-0.5-0.4-0.8c0-0.2,0.1-0.4,0.2-0.8
				L274.7,300.2z"/>
			<path class="st4" d="M284.6,300.2v2.9c0.9-0.3,1.7-0.4,2.4-0.4c1.5,0,2.7,0.5,3.7,1.5s1.5,2.3,1.5,3.9c0,1.6-0.5,2.9-1.5,3.9
				s-2.5,1.4-4.5,1.4c-1.8,0-3.2-0.3-4.3-1c-0.6-0.4-0.9-0.8-0.9-1.3c0-0.3,0.1-0.6,0.4-0.8s0.5-0.4,0.8-0.4c0.3,0,0.6,0.1,0.9,0.4
				s0.7,0.4,1,0.5c0.5,0.1,1.1,0.2,1.9,0.2c1.5,0,2.4-0.2,3-0.7s0.8-1.2,0.8-2.1c0-0.9-0.3-1.7-0.8-2.2s-1.2-0.8-2-0.8
				c-0.9,0-1.9,0.3-3,0.8c-0.3,0.1-0.5,0.2-0.7,0.2c-0.3,0-0.6-0.1-0.9-0.4s-0.3-0.6-0.3-1v-6.9h7.3c0.6,0,1,0.1,1.2,0.3
				s0.4,0.5,0.4,0.9c0,0.4-0.1,0.6-0.4,0.9s-0.7,0.3-1.2,0.3H284.6z"/>
			<path class="st4" d="M304.4,305.3c0.6,0.5,1.1,1,1.4,1.6s0.5,1.3,0.5,2c0,0.8-0.2,1.5-0.6,2.2s-1,1.2-1.9,1.6s-1.8,0.6-2.8,0.6
				s-2-0.2-2.8-0.6s-1.4-0.9-1.8-1.6s-0.6-1.4-0.6-2.2c0-0.7,0.2-1.4,0.5-2s0.8-1.1,1.4-1.6c-0.5-0.5-0.9-1-1.2-1.6
				s-0.4-1.2-0.4-1.8c0-1.2,0.5-2.3,1.4-3.2s2.1-1.3,3.6-1.3s2.7,0.4,3.6,1.3s1.4,1.9,1.4,3.2c0,0.6-0.1,1.2-0.4,1.8
				S305,304.8,304.4,305.3z M303.9,309.1c0-0.6-0.3-1.2-0.8-1.7s-1.2-0.8-2-0.8s-1.5,0.3-2,0.8s-0.8,1.1-0.8,1.7
				c0,0.5,0.2,0.9,0.7,1.3s1.2,0.6,2.1,0.6c1,0,1.7-0.2,2.1-0.6S303.9,309.6,303.9,309.1z M303.6,302c0-0.6-0.2-1.1-0.7-1.5
				s-1.1-0.6-1.9-0.6c-0.8,0-1.4,0.2-1.9,0.6s-0.7,0.9-0.7,1.5c0,0.6,0.2,1.1,0.7,1.5s1.1,0.6,1.9,0.6c0.8,0,1.4-0.2,1.9-0.6
				S303.6,302.6,303.6,302z"/>
			<path class="st4" d="M319,297.8v9.4c0.5,0,0.9,0.1,1.1,0.3s0.4,0.5,0.4,0.9s-0.1,0.6-0.4,0.9s-0.6,0.3-1.1,0.3v1
				c0.5,0,0.9,0.1,1.1,0.3s0.4,0.5,0.4,0.9s-0.1,0.6-0.4,0.9s-0.7,0.3-1.2,0.3h-3.2c-0.6,0-1-0.1-1.2-0.3s-0.4-0.5-0.4-0.9
				c0-0.4,0.1-0.6,0.4-0.9s0.7-0.3,1.2-0.3h0.9v-1H310v-2l5.8-9.8H319z M316.6,307.2v-5.9l-3.5,5.9H316.6z"/>
		</g>
		<g class="st3">
			<path class="st4" d="M53,342.7v7h0.8c0.6,0,0.9,0.1,1.2,0.3c0.2,0.2,0.4,0.5,0.4,0.8c0,0.3-0.1,0.6-0.4,0.8
				c-0.2,0.2-0.6,0.3-1.2,0.3h-3c-0.6,0-0.9-0.1-1.2-0.3c-0.2-0.2-0.4-0.5-0.4-0.8c0-0.3,0.1-0.6,0.3-0.8s0.6-0.3,1.1-0.3v-9h-0.4
				c-0.6,0-0.9-0.1-1.2-0.3c-0.2-0.2-0.4-0.5-0.4-0.8s0.1-0.6,0.4-0.8c0.2-0.2,0.6-0.3,1.2-0.3l2.7,0l5.9,9.2v-6.9h-0.8
				c-0.6,0-0.9-0.1-1.2-0.3c-0.2-0.2-0.4-0.5-0.4-0.8s0.1-0.6,0.4-0.8c0.2-0.2,0.6-0.3,1.2-0.3l3,0c0.6,0,0.9,0.1,1.2,0.3
				c0.2,0.2,0.4,0.5,0.4,0.8c0,0.3-0.1,0.6-0.3,0.8s-0.6,0.3-1.1,0.3V352h-2.3L53,342.7z"/>
			<path class="st4" d="M76.2,345.2c0,2-0.6,3.7-1.9,5.1c-1.3,1.4-2.8,2-4.5,2c-1.5,0-2.9-0.6-4.2-1.7c-1.5-1.4-2.3-3.2-2.3-5.4
				s0.8-4.1,2.3-5.5c1.2-1.1,2.6-1.7,4.2-1.7c1.7,0,3.2,0.7,4.5,2C75.5,341.4,76.2,343.1,76.2,345.2z M73.9,345.2
				c0-1.4-0.4-2.6-1.3-3.5s-1.8-1.4-2.9-1.4c-1.1,0-2,0.5-2.9,1.4c-0.8,0.9-1.3,2.1-1.3,3.5s0.4,2.5,1.3,3.5s1.8,1.4,2.9,1.4
				c1.1,0,2-0.5,2.9-1.4C73.4,347.8,73.9,346.6,73.9,345.2z"/>
			<path class="st4" d="M79.9,342.8v6.9h0.8c0.6,0,0.9,0.1,1.2,0.3c0.2,0.2,0.4,0.5,0.4,0.8c0,0.3-0.1,0.6-0.4,0.8
				c-0.2,0.2-0.6,0.3-1.2,0.3h-3c-0.6,0-0.9-0.1-1.2-0.3c-0.2-0.2-0.4-0.5-0.4-0.8c0-0.3,0.1-0.6,0.3-0.8c0.2-0.2,0.6-0.3,1.1-0.3
				v-9c-0.4,0-0.7-0.2-0.9-0.4c-0.2-0.2-0.3-0.5-0.3-0.8c0-0.3,0.1-0.6,0.4-0.8c0.2-0.2,0.6-0.3,1.2-0.3l2.5,0l3.1,6.9l3.1-6.9
				l2.5,0c0.6,0,0.9,0.1,1.2,0.3c0.2,0.2,0.4,0.5,0.4,0.8c0,0.3-0.1,0.6-0.3,0.8s-0.5,0.3-0.9,0.4v9c0.5,0,0.8,0.1,1.1,0.3
				s0.3,0.5,0.3,0.8s-0.1,0.6-0.4,0.8c-0.2,0.2-0.6,0.3-1.2,0.3h-3c-0.5,0-0.9-0.1-1.2-0.3c-0.2-0.2-0.4-0.5-0.4-0.8
				c0-0.3,0.1-0.6,0.4-0.8c0.2-0.2,0.6-0.3,1.2-0.3h0.8v-6.9l-2.6,5.9h-2L79.9,342.8z"/>
			<path class="st4" d="M92.6,349.7v-9h-0.4c-0.6,0-0.9-0.1-1.2-0.3c-0.2-0.2-0.4-0.5-0.4-0.8s0.1-0.6,0.4-0.8
				c0.2-0.2,0.6-0.3,1.2-0.3H98c1.4,0,2.5,0.4,3.3,1.2s1.3,1.7,1.3,2.7c0,0.5-0.1,1-0.3,1.4c-0.2,0.4-0.5,0.9-0.9,1.2
				c0.7,0.4,1.3,0.9,1.6,1.5c0.4,0.6,0.5,1.2,0.5,2c0,0.6-0.1,1.1-0.4,1.6c-0.2,0.4-0.4,0.7-0.7,0.9c-0.4,0.3-0.8,0.6-1.4,0.8
				S99.8,352,99,352h-6.8c-0.6,0-0.9-0.1-1.2-0.3c-0.2-0.2-0.4-0.5-0.4-0.8c0-0.3,0.1-0.6,0.4-0.8c0.2-0.2,0.6-0.3,1.2-0.3H92.6z
				 M94.9,344h2.5c0.9,0,1.7-0.2,2.3-0.7c0.4-0.3,0.6-0.7,0.6-1.1c0-0.4-0.2-0.8-0.6-1.1c-0.4-0.3-1-0.5-1.8-0.5h-3V344z
				 M94.9,349.7h4c0.9,0,1.6-0.1,2-0.4c0.3-0.2,0.4-0.5,0.4-0.9c0-0.5-0.3-0.9-0.9-1.4s-1.4-0.7-2.5-0.7h-3V349.7z"/>
			<path class="st4" d="M108.7,346.8v2.9h0.8c0.6,0,0.9,0.1,1.2,0.3c0.2,0.2,0.4,0.5,0.4,0.8c0,0.3-0.1,0.6-0.4,0.8
				c-0.2,0.2-0.6,0.3-1.2,0.3h-3.5c-0.6,0-0.9-0.1-1.2-0.3c-0.2-0.2-0.4-0.5-0.4-0.8c0-0.3,0.1-0.6,0.4-0.8c0.2-0.2,0.6-0.3,1.2-0.3
				h0.4v-9h-0.4c-0.6,0-0.9-0.1-1.2-0.3c-0.2-0.2-0.4-0.5-0.4-0.8s0.1-0.6,0.4-0.8c0.2-0.2,0.6-0.3,1.2-0.3l5.2,0
				c1.6,0,2.9,0.4,3.8,1.2c0.9,0.8,1.3,1.8,1.3,2.9c0,0.7-0.2,1.4-0.6,2s-1.1,1.1-1.9,1.6c0.5,0.4,1,1,1.6,1.6
				c0.3,0.4,0.8,1.1,1.4,2c0.6,0,1,0.1,1.2,0.2c0.3,0.2,0.5,0.6,0.5,1c0,0.3-0.1,0.6-0.3,0.8c-0.2,0.2-0.6,0.3-1.2,0.3h-1.3
				c-1.9-2.9-3.4-4.6-4.6-5.2H108.7z M108.7,344.5h1.8c0.7,0,1.3-0.1,1.8-0.3c0.7-0.3,1.2-0.6,1.4-0.9c0.2-0.3,0.4-0.6,0.4-0.9
				c0-0.4-0.2-0.8-0.7-1.2c-0.5-0.4-1.1-0.6-2-0.6h-2.6V344.5z"/>
			<path class="st4" d="M122.5,346.3v3.4h5.9v-1.2c0-0.6,0.1-0.9,0.3-1.2c0.2-0.2,0.5-0.4,0.8-0.4c0.3,0,0.6,0.1,0.8,0.4
				c0.2,0.2,0.3,0.6,0.3,1.2v3.5h-10.8c-0.6,0-0.9-0.1-1.2-0.3c-0.2-0.2-0.4-0.5-0.4-0.8c0-0.3,0.1-0.6,0.4-0.8
				c0.2-0.2,0.6-0.3,1.2-0.3h0.4v-9h-0.4c-0.6,0-0.9-0.1-1.2-0.3c-0.2-0.2-0.4-0.5-0.4-0.8s0.1-0.6,0.4-0.8c0.2-0.2,0.6-0.3,1.2-0.3
				l10.3,0v3.5c0,0.5-0.1,0.9-0.3,1.2c-0.2,0.2-0.5,0.4-0.8,0.4s-0.6-0.1-0.8-0.3c-0.2-0.2-0.3-0.6-0.3-1.2v-1.2h-5.4v3.3h2
				c0-0.6,0.1-1,0.2-1.2c0.2-0.4,0.6-0.5,1-0.5c0.3,0,0.6,0.1,0.8,0.4c0.2,0.2,0.3,0.6,0.3,1.2v2.7c0,0.5-0.1,0.8-0.2,1
				c-0.2,0.4-0.6,0.5-1,0.5c-0.4,0-0.8-0.2-1-0.5c-0.1-0.2-0.2-0.6-0.2-1.2H122.5z"/>
		</g>
		<g class="st3">
			<path class="st4" d="M256.3,342.8v6.9h0.8c0.6,0,0.9,0.1,1.2,0.3c0.2,0.2,0.4,0.5,0.4,0.8c0,0.3-0.1,0.6-0.4,0.8
				c-0.2,0.2-0.6,0.3-1.2,0.3h-3c-0.6,0-0.9-0.1-1.2-0.3c-0.2-0.2-0.4-0.5-0.4-0.8c0-0.3,0.1-0.6,0.3-0.8c0.2-0.2,0.6-0.3,1.1-0.3
				v-9c-0.4,0-0.7-0.2-0.9-0.4c-0.2-0.2-0.3-0.5-0.3-0.8c0-0.3,0.1-0.6,0.4-0.8c0.2-0.2,0.6-0.3,1.2-0.3l2.5,0l3.1,6.9l3.1-6.9
				l2.5,0c0.6,0,0.9,0.1,1.2,0.3c0.2,0.2,0.4,0.5,0.4,0.8c0,0.3-0.1,0.6-0.3,0.8c-0.2,0.2-0.5,0.3-0.9,0.4v9c0.5,0,0.8,0.1,1.1,0.3
				s0.3,0.5,0.3,0.8s-0.1,0.6-0.4,0.8c-0.2,0.2-0.6,0.3-1.2,0.3h-3c-0.5,0-0.9-0.1-1.2-0.3c-0.2-0.2-0.4-0.5-0.4-0.8
				c0-0.3,0.1-0.6,0.4-0.8c0.2-0.2,0.6-0.3,1.2-0.3h0.8v-6.9l-2.6,5.9h-2L256.3,342.8z"/>
			<path class="st4" d="M270.1,342.8v6.9h0.8c0.6,0,0.9,0.1,1.2,0.3c0.2,0.2,0.4,0.5,0.4,0.8c0,0.3-0.1,0.6-0.4,0.8
				c-0.2,0.2-0.6,0.3-1.2,0.3h-3c-0.6,0-0.9-0.1-1.2-0.3c-0.2-0.2-0.4-0.5-0.4-0.8c0-0.3,0.1-0.6,0.3-0.8c0.2-0.2,0.6-0.3,1.1-0.3
				v-9c-0.4,0-0.7-0.2-0.9-0.4c-0.2-0.2-0.3-0.5-0.3-0.8c0-0.3,0.1-0.6,0.4-0.8c0.2-0.2,0.6-0.3,1.2-0.3l2.5,0l3.1,6.9l3.1-6.9
				l2.5,0c0.6,0,0.9,0.1,1.2,0.3s0.4,0.5,0.4,0.8c0,0.3-0.1,0.6-0.3,0.8s-0.5,0.3-0.9,0.4v9c0.5,0,0.8,0.1,1.1,0.3
				c0.2,0.2,0.3,0.5,0.3,0.8s-0.1,0.6-0.4,0.8c-0.2,0.2-0.6,0.3-1.2,0.3h-3c-0.5,0-0.9-0.1-1.2-0.3c-0.2-0.2-0.4-0.5-0.4-0.8
				c0-0.3,0.1-0.6,0.4-0.8c0.2-0.2,0.6-0.3,1.2-0.3h0.8v-6.9l-2.6,5.9h-2L270.1,342.8z"/>
			<path class="st4" d="M292.3,337.7l-7.4,15.9c-0.2,0.4-0.4,0.7-0.5,0.8c-0.2,0.2-0.4,0.2-0.7,0.2c-0.3,0-0.6-0.1-0.8-0.3
				c-0.2-0.2-0.3-0.5-0.3-0.8c0-0.2,0.1-0.5,0.3-0.9l7.4-15.9c0.2-0.4,0.4-0.7,0.5-0.8c0.2-0.2,0.4-0.2,0.7-0.2
				c0.3,0,0.6,0.1,0.8,0.3s0.3,0.5,0.3,0.8C292.5,337.1,292.4,337.3,292.3,337.7z"/>
			<path class="st4" d="M304.1,348.3h-5.6l-0.6,1.4h0.6c0.6,0,0.9,0.1,1.2,0.3c0.2,0.2,0.4,0.5,0.4,0.8c0,0.3-0.1,0.6-0.4,0.8
				c-0.2,0.2-0.6,0.3-1.2,0.3h-3.1c-0.6,0-0.9-0.1-1.2-0.3c-0.2-0.2-0.4-0.5-0.4-0.8c0-0.3,0.1-0.6,0.4-0.8s0.7-0.3,1.2-0.3l3.6-9
				h-1.5c-0.6,0-0.9-0.1-1.2-0.3c-0.2-0.2-0.4-0.5-0.4-0.8s0.1-0.6,0.4-0.8c0.2-0.2,0.6-0.3,1.2-0.3l5,0l4.6,11.3
				c0.5,0,0.9,0.1,1.1,0.2c0.3,0.2,0.5,0.6,0.5,1c0,0.3-0.1,0.6-0.3,0.8c-0.2,0.2-0.6,0.3-1.2,0.3h-3.1c-0.6,0-0.9-0.1-1.2-0.3
				c-0.2-0.2-0.4-0.5-0.4-0.8c0-0.3,0.1-0.6,0.4-0.8c0.2-0.2,0.6-0.3,1.2-0.3h0.6L304.1,348.3z M303.2,346l-1.9-4.6l-1.9,4.6H303.2z
				"/>
			<path class="st4" d="M317.9,348.3h-5.6l-0.6,1.4h0.6c0.6,0,0.9,0.1,1.2,0.3c0.2,0.2,0.4,0.5,0.4,0.8c0,0.3-0.1,0.6-0.4,0.8
				c-0.2,0.2-0.6,0.3-1.2,0.3h-3.1c-0.6,0-0.9-0.1-1.2-0.3c-0.2-0.2-0.4-0.5-0.4-0.8c0-0.3,0.1-0.6,0.4-0.8c0.2-0.2,0.7-0.3,1.2-0.3
				l3.6-9h-1.5c-0.6,0-0.9-0.1-1.2-0.3c-0.2-0.2-0.4-0.5-0.4-0.8s0.1-0.6,0.4-0.8c0.2-0.2,0.6-0.3,1.2-0.3l5,0l4.6,11.3
				c0.5,0,0.9,0.1,1.1,0.2c0.3,0.2,0.5,0.6,0.5,1c0,0.3-0.1,0.6-0.3,0.8c-0.2,0.2-0.6,0.3-1.2,0.3h-3.1c-0.6,0-0.9-0.1-1.2-0.3
				c-0.2-0.2-0.4-0.5-0.4-0.8c0-0.3,0.1-0.6,0.4-0.8c0.2-0.2,0.6-0.3,1.2-0.3h0.6L317.9,348.3z M317,346l-1.9-4.6l-1.9,4.6H317z"/>
		</g>
	</g>
	<g id="Rectángulo_474" transform="translate(238 286)">
		<g>
			<path class="st5" d="M2,0h85c1.1,0,2,0.9,2,2v37c0,1.1-0.9,2-2,2H2c-1.1,0-2-0.9-2-2V2C0,0.9,0.9,0,2,0z"/>
		</g>
		<g>
			<path class="st6" d="M87,41H2c-1.1,0-2-0.9-2-2V2c0-1.1,0.9-2,2-2h85c1.1,0,2,0.9,2,2v37C89,40.1,88.1,41,87,41z M2,2L2,2v37h85
				V2H2z"/>
		</g>
	</g>
	<g id="Línea_107">
		<path class="st6" d="M282.5,372c-0.8,0-1.5-0.7-1.5-1.5v-1c0-0.8,0.7-1.5,1.5-1.5s1.5,0.7,1.5,1.5v1
			C284,371.3,283.3,372,282.5,372z M282.5,365c-0.8,0-1.5-0.7-1.5-1.5v-1c0-0.8,0.7-1.5,1.5-1.5s1.5,0.7,1.5,1.5v1
			C284,364.3,283.3,365,282.5,365z M282.5,358c-0.8,0-1.5-0.7-1.5-1.5v-1c0-0.8,0.7-1.5,1.5-1.5s1.5,0.7,1.5,1.5v1
			C284,357.3,283.3,358,282.5,358z M282.5,351c-0.8,0-1.5-0.7-1.5-1.5v-1c0-0.8,0.7-1.5,1.5-1.5s1.5,0.7,1.5,1.5v1
			C284,350.3,283.3,351,282.5,351z M282.5,344c-0.8,0-1.5-0.7-1.5-1.5v-1c0-0.8,0.7-1.5,1.5-1.5s1.5,0.7,1.5,1.5v1
			C284,343.3,283.3,344,282.5,344z M282.5,337c-0.8,0-1.5-0.7-1.5-1.5v-1c0-0.8,0.7-1.5,1.5-1.5s1.5,0.7,1.5,1.5v1
			C284,336.3,283.3,337,282.5,337z M282.5,330c-0.8,0-1.5-0.7-1.5-1.5v-1c0-0.8,0.7-1.5,1.5-1.5s1.5,0.7,1.5,1.5v1
			C284,329.3,283.3,330,282.5,330z"/>
	</g>
</g>
</svg>
