<svg xmlns="http://www.w3.org/2000/svg" width="14" height="14" viewBox="0 0 14 14"><defs><style>.a{fill:#54b3a5;}</style></defs><g transform="translate(0 0)"><path class="a" d="M15.944,2.333a1.244,1.244,0,0,0-.335.117L11.667,3.967,7,2.333,2.606,3.811a.386.386,0,0,0-.272.389V15.944a.368.368,0,0,0,.389.389,1.69,1.69,0,0,0,.331-.121L7,14.7l4.667,1.633,4.394-1.478a.386.386,0,0,0,.272-.389V2.722A.368.368,0,0,0,15.944,2.333ZM11.667,14.778,7,13.144V3.889l4.667,1.633Z" transform="translate(-2.333 -2.333)"/></g></svg>