<svg xmlns="http://www.w3.org/2000/svg" width="23.333" height="13.6" viewBox="0 0 23.333 13.6"><defs><style>.a{fill:#3db39e;}.b{fill:#81cec0;}</style></defs><g transform="translate(0 13.6) rotate(-90)"><path class="a" d="M.655,0H12.944A.626.626,0,0,1,13.6.593V22.74a.625.625,0,0,1-.655.593H.655A.626.626,0,0,1,0,22.74V.593A.612.612,0,0,1,.655,0Z"/><path class="b" d="M0,7.6a4.083,4.083,0,0,0,4.06,4.107,4.107,4.107,0,0,0,0-8.214A4.1,4.1,0,0,0,0,7.6Zm1.888-.1h.3a1.4,1.4,0,0,1,.65-1.068.373.373,0,0,1,.142-.041.275.275,0,0,1,.284.267.251.251,0,0,1-.122.226,1.2,1.2,0,0,0-.406.863c0,.472.162.7.487.7.792,0,.426-1.91,1.726-1.91a.955.955,0,0,1,.974.965h.3a.247.247,0,1,1,0,.493h-.3a1.372,1.372,0,0,1-.487.945.246.246,0,0,1-.183.062.279.279,0,0,1-.284-.288A.317.317,0,0,1,5.1,8.481a1.062,1.062,0,0,0,.284-.739c0-.431-.2-.6-.426-.6-.711,0-.386,1.91-1.726,1.91-.589,0-.974-.37-1.056-1.068h-.3A.253.253,0,0,1,1.6,7.742.286.286,0,0,1,1.888,7.5ZM3.451,14.58a.609.609,0,1,0,.609-.616A.614.614,0,0,0,3.451,14.58ZM4.669.616a.609.609,0,1,0-1.218,0,.609.609,0,1,0,1.218,0Z" transform="translate(2.839 4.051)"/></g></svg>