<svg xmlns="http://www.w3.org/2000/svg" width="28" height="28.631" viewBox="0 0 28 28.631"><defs><style>.a{fill:#666;}</style></defs><path class="a" d="M21.74,14.98a6.548,6.548,0,0,0-1.55.147V20a5.831,5.831,0,0,0,1.256.1c1.985,0,3.209-1.005,3.209-2.695C24.656,15.886,23.6,14.98,21.74,14.98Z" transform="translate(-8.027 -5.735)"/><path class="a" d="M25.115,0H3.9A3.391,3.391,0,0,0,.506,3.392V25.24A3.391,3.391,0,0,0,3.9,28.631H25.115a3.391,3.391,0,0,0,3.391-3.391V3.392A3.39,3.39,0,0,0,25.115,0Zm1.3,24.7a1.844,1.844,0,0,1-1.845,1.845H4.4A1.845,1.845,0,0,1,2.557,24.7V3.975A1.845,1.845,0,0,1,4.4,2.13H24.571a1.845,1.845,0,0,1,1.845,1.845V24.7Z" transform="translate(-0.506)"/><path class="a" d="M26.3,5.507H6.422a.536.536,0,0,0-.537.536V26.466A.537.537,0,0,0,6.422,27H26.3a.537.537,0,0,0,.536-.536V6.043A.536.536,0,0,0,26.3,5.507Zm-5.362,11.7a7.225,7.225,0,0,1-5.06,1.638,9.254,9.254,0,0,1-1.206-.069v5.577H11.21V8.993a28.689,28.689,0,0,1,4.747-.324,7.45,7.45,0,0,1,4.752,1.247,4.549,4.549,0,0,1,1.66,3.6A4.968,4.968,0,0,1,20.934,17.211Z" transform="translate(-2.379 -1.918)"/></svg>