<svg width="157" height="241" viewBox="0 0 157 241" fill="none" xmlns="http://www.w3.org/2000/svg">
<path d="M77.5899 48.9674C62.4977 49.1633 47.6312 55.4367 49.381 67.5676L53.6206 93.9297C54.3668 98.5698 57.8238 105.957 62.8289 105.892L63.1853 105.888L67.9579 151.944C68.1643 153.933 69.7292 155.534 71.8638 155.506L87.2759 155.308C89.4104 155.28 90.9279 153.641 91.076 151.646L94.4988 105.485L94.8552 105.48C99.8584 105.416 103.1 97.9411 103.71 93.2854L107.176 66.8241C108.006 54.6492 92.6841 48.7696 77.5899 48.9674Z" fill="black"/>
<path d="M48.6808 126.565C21.5196 130.52 2.61192 139.389 2.79773 152.083C3.048 169.183 35.0537 182.635 80.3114 182.053C125.569 181.471 157.169 167.2 156.919 150.101C156.733 137.406 137.575 129.027 110.31 125.772L106.628 131.838C127.176 134.242 141.351 139.667 141.446 146.172C141.58 155.293 114.087 163.04 80.0395 163.478C45.9922 163.916 18.2829 156.879 18.1494 147.758C18.0526 141.274 31.9706 135.494 52.5046 132.551C51.2326 130.555 49.9529 128.563 48.6789 126.565L48.6808 126.565Z" fill="black"/>
<path d="M80.4553 38.5547C91.6272 38.411 100.559 29.8042 100.406 19.331C100.253 8.85768 91.072 0.48391 79.9002 0.627615C68.7284 0.771321 59.7961 9.37808 59.9494 19.8514C60.1027 30.3246 69.2835 38.6984 80.4553 38.5547Z" fill="black"/>
</svg>
