<svg xmlns="http://www.w3.org/2000/svg" width="40" height="31.834" viewBox="0 0 40 31.834"><defs><style>.a{fill:#666;}</style></defs><g transform="translate(0 0)"><path class="a" d="M479.97,442.668h-1.4a.7.7,0,1,0,0,1.4h1.4a.7.7,0,1,0,0-1.4Z" transform="translate(-440.671 -412.236)"/><path class="a" d="M52.6,148.785h9.813a1.4,1.4,0,0,0,1.4-1.4V136.869a1.4,1.4,0,0,0-1.4-1.4H52.6a1.4,1.4,0,0,0-1.4,1.4v10.514A1.4,1.4,0,0,0,52.6,148.785Zm6.308-1.4h-2.8v-1.4a.7.7,0,0,1,.7-.7h1.4a.7.7,0,0,1,.7.7ZM52.6,136.869h9.813v10.514h-2.1v-1.4a2.105,2.105,0,0,0-2.1-2.1h-1.4a2.105,2.105,0,0,0-2.1,2.1v1.4H52.6Z" transform="translate(-46.994 -129.188)"/><path class="a" d="M69.546,314.668H61.135a1.4,1.4,0,0,0-1.4,1.4v6.308a1.4,1.4,0,0,0,1.4,1.4h8.411a1.4,1.4,0,0,0,1.4-1.4V316.07A1.4,1.4,0,0,0,69.546,314.668Zm-8.411,7.71V316.07h8.411v6.308Z" transform="translate(-54.827 -294.75)"/><path class="a" d="M98.773,348.8H94.568a.7.7,0,1,0,0,1.4h4.206a.7.7,0,1,0,0-1.4Z" transform="translate(-86.592 -325.686)"/><path class="a" d="M98.773,374.4H94.568a.7.7,0,1,0,0,1.4h4.206a.7.7,0,1,0,0-1.4Z" transform="translate(-86.592 -349.291)"/><path class="a" d="M40,54.925a2.659,2.659,0,0,0-3.572-2.5h0c-.009,0-.018,0-.026.008a2.639,2.639,0,0,0-.953.606L32.2,56.293h0l-4,4h0l-4,4h0L18.71,69.779l-.043.023V57.309A2,2,0,0,0,20,55.432v-2a.667.667,0,0,0-.667-.667H.667A.667.667,0,0,0,0,53.432v2a2,2,0,0,0,1.333,1.877V82.765H.667a.667.667,0,0,0,0,1.333H35.333a.667.667,0,1,0,0-1.333H22.667v-9.4l2.471-2.471h0l4-4h0l4-4h0l4-4h0l2.08-2.08A2.683,2.683,0,0,0,40,54.925ZM17.333,82.765H2.667V57.432H17.333V82.765ZM18,56.1H2a.668.668,0,0,1-.667-.667V54.1H18.667v1.333A.668.668,0,0,1,18,56.1Zm3.333,26.667H18.667V72.1a1.333,1.333,0,1,1,2.667,0V82.765ZM24,70.142l-1.4,1.4a2.665,2.665,0,0,0-1.8-1.968L24,66.374v3.768Zm4-4-2.667,2.667V65.041L28,62.374Zm4-4-2.667,2.667V61.041L32,58.374Zm4-4-2.667,2.667V57.041L36,54.374Zm2.275-2.275-.942.942V53.593a1.331,1.331,0,0,1,.942,2.273Z" transform="translate(0 -52.265)"/><path class="a" d="M248.813,306.58a.536.536,0,0,0-.063-.126l-.084-.105a.7.7,0,0,0-.764-.148.72.72,0,0,0-.231.148l-.084.105a.541.541,0,0,0-.063.126.442.442,0,0,0-.042.126.928.928,0,0,0-.014.14.7.7,0,0,0,.056.266.725.725,0,0,0,.147.231.815.815,0,0,0,.231.147.7.7,0,0,0,.267.056.974.974,0,0,0,.14-.014.457.457,0,0,0,.126-.042.535.535,0,0,0,.126-.063l.105-.084a.729.729,0,0,0,.147-.231.7.7,0,0,0,.056-.266.956.956,0,0,0-.014-.14A.455.455,0,0,0,248.813,306.58Z" transform="translate(-228.168 -286.357)"/></g></svg>