<svg xmlns="http://www.w3.org/2000/svg" width="35" height="20.18" viewBox="0 0 35 20.18">
  <g id="card" transform="translate(0)">
    <path id="Trazado_2174" data-name="Trazado 2174" d="M32.791,0H2.208A2.054,2.054,0,0,0,0,1.851V18.328A2.054,2.054,0,0,0,2.208,20.18H32.791A2.054,2.054,0,0,0,35,18.328V1.851A2.054,2.054,0,0,0,32.791,0Zm0,0" transform="translate(0)" fill="#54b3a5"/>
    <path id="Trazado_2175" data-name="Trazado 2175" d="M0,55.148H35v4.943H0Zm0,0" transform="translate(-0.001 -53.053)" fill="#333"/>
    <g id="Grupo_1284" data-name="Grupo 1284" transform="translate(2.027 9.955)">
      <path id="Trazado_2179" data-name="Trazado 2179" d="M37.743,175.132H34.317a.474.474,0,0,1,0-.948h3.426a.474.474,0,0,1,0,.948Zm0,0" transform="translate(-33.848 -174.183)" fill="#2e685f"/>
      <path id="Trazado_2180" data-name="Trazado 2180" d="M214.759,175.132h-3.426a.474.474,0,0,1,0-.948h3.426a.474.474,0,0,1,0,.948Zm0,0" transform="translate(-200.261 -174.183)" fill="#2e685f"/>
      <path id="Trazado_2181" data-name="Trazado 2181" d="M126.251,175.132h-3.426a.474.474,0,0,1,0-.948h3.426a.474.474,0,0,1,0,.948Zm0,0" transform="translate(-117.054 -174.183)" fill="#2e685f"/>
      <path id="Trazado_2182" data-name="Trazado 2182" d="M303.266,175.132H299.84a.474.474,0,0,1,0-.948h3.425a.474.474,0,0,1,0,.948Zm0,0" transform="translate(-283.467 -174.183)" fill="#2e685f"/>
    </g>
    <path id="Trazado_2183" data-name="Trazado 2183" d="M45.057,250.468H34.316a.474.474,0,0,1,0-.948h10.74a.474.474,0,0,1,0,.948Zm0,0" transform="translate(-31.82 -235.259)" fill="#2e685f"/>
    <path id="Trazado_2184" data-name="Trazado 2184" d="M40.531,287.233H34.317a.474.474,0,0,1,0-.948h6.214a.474.474,0,0,1,0,.948Zm0,0" transform="translate(-31.821 -270.149)" fill="#2e685f"/>
  </g>
</svg>
