<svg id="Icon_Master" data-name="Icon / Master" xmlns="http://www.w3.org/2000/svg" width="35" height="20.178" viewBox="0 0 35 20.178">
  <g id="Grupo_1280" data-name="Grupo 1280" transform="translate(-2030 -264.841)">
    <g id="Grupo_705" data-name="Grupo 705" transform="translate(2030 264.841)">
      <g id="XMLID_7_" transform="translate(0 0)">
        <path id="XMLID_130_" d="M33.059,28.178H1.941A1.777,1.777,0,0,1,0,26.632V9.546A1.777,1.777,0,0,1,1.941,8H33.059A1.777,1.777,0,0,1,35,9.546V26.632a1.777,1.777,0,0,1-1.941,1.546" transform="translate(0 -8)" fill="#ddd"/>
      </g>
    </g>
  </g>
  <g id="Grupo_1283" data-name="Grupo 1283" transform="translate(5.897 1.019)">
    <path id="_Compound_Path_2_1_" d="M5.228,30.95V29.76A.715.715,0,0,0,4.579,29H4.471a.708.708,0,0,0-.649.324A.708.708,0,0,0,3.173,29a.666.666,0,0,0-.541.27v-.216H2.2V30.95h.433V29.868a.4.4,0,0,1,.379-.487h.054c.27,0,.433.162.433.487V30.95H3.93V29.868a.4.4,0,0,1,.379-.487h.054c.27,0,.433.162.433.487V30.95Zm6.219-1.893h-.7v-.595h-.433v.595H9.933v.379h.379V30.3c0,.433.162.7.649.7a.914.914,0,0,0,.541-.162l-.108-.379a.782.782,0,0,1-.379.108c-.216,0-.27-.108-.27-.324v-.865h.7ZM14.962,29a.568.568,0,0,0-.487.27v-.216h-.433V30.95h.433V29.868c0-.324.108-.487.433-.487a.487.487,0,0,1,.27.054l.108-.379A.686.686,0,0,0,14.962,29Zm-5.353.216A1.242,1.242,0,0,0,8.851,29c-.487,0-.811.216-.811.595s.216.487.649.541h.216c.216.054.324.108.324.216s-.162.216-.433.216a1.039,1.039,0,0,1-.649-.216l-.216.324a1.457,1.457,0,0,0,.811.27c.541,0,.865-.27.865-.595s-.27-.487-.649-.541H8.743c-.162,0-.324-.054-.324-.216s.108-.216.379-.216a1.09,1.09,0,0,1,.595.162ZM20.747,29a.568.568,0,0,0-.487.27v-.216h-.433V30.95h.433V29.868c0-.324.108-.487.433-.487a.487.487,0,0,1,.27.054l.108-.379A.686.686,0,0,0,20.747,29ZM15.394,30.03a1.007,1.007,0,0,0,.919,1.027h.108a1.087,1.087,0,0,0,.7-.216l-.216-.324a.872.872,0,0,1-.487.162.595.595,0,1,1,0-1.19.755.755,0,0,1,.487.162l.216-.324a1.087,1.087,0,0,0-.7-.216.969.969,0,0,0-1.027.919Zm3.893,0v-.973h-.433v.216A.868.868,0,0,0,18.26,29a1.027,1.027,0,0,0-1.027,1.027.994.994,0,0,0,1.027,1.027.868.868,0,0,0,.595-.27V31h.433Zm-1.568,0a.568.568,0,1,1,.541.595.556.556,0,0,1-.541-.595ZM12.744,29a1,1,0,1,0,.054,2h0a1.292,1.292,0,0,0,.757-.27l-.216-.324a.961.961,0,0,1-.541.216.575.575,0,0,1-.541-.487h1.406v-.162A.9.9,0,0,0,12.853,29c0,.054-.054.054-.108,0Zm0,.379a.485.485,0,0,1,.487.487h-.973A.485.485,0,0,1,12.744,29.381Zm10.382.649V28.3h-.433v1.027a.868.868,0,0,0-.595-.27,1.027,1.027,0,0,0-1.027,1.027A.994.994,0,0,0,22.1,31.112a.868.868,0,0,0,.595-.27v.216h.433Zm-1.568,0a.568.568,0,1,1,.541.595c-.27,0-.487-.216-.541-.595Zm-14.005,0v-.973H7.121v.216A.868.868,0,0,0,6.526,29,1.027,1.027,0,0,0,5.5,30.03a.994.994,0,0,0,1.027,1.027.868.868,0,0,0,.595-.27V31h.433Zm-1.514,0a.568.568,0,1,1,.541.595.556.556,0,0,1-.541-.595Zm17.79.649h0c.054,0,.108,0,.108.054l.054.054V30.9a.053.053,0,0,1-.054.054L23.884,31h-.162l-.054-.054-.054-.054v-.108c0-.054.054-.054.108-.108Zm0,.379h0L23.938,31a.053.053,0,0,1,.054-.054v-.108a.053.053,0,0,0-.054-.054l-.054-.054h-.108l-.054.054c-.054.054-.054.054-.054.108v.054a.053.053,0,0,0,.054.054l.108.054Zm0-.27h0l.054.054H23.83l.054.054H23.83l-.054-.054h0V30.9h-.054v-.162Zm-.054.054h0l.054.054h0l-.054-.054Z" transform="translate(-1.019 -13.006)"/>
    <g id="_Group_2_1_" transform="translate(-0.019 -0.019)">
      <rect id="Rectángulo_405" data-name="Rectángulo 405" width="6.273" height="11.302" transform="translate(8.5 1.524)" fill="#ff5f00"/>
      <path id="_Path_2_1_" d="M8.86,7.183a7.308,7.308,0,0,1,2.758-5.678A7.263,7.263,0,0,0,1.505,2.7,7.263,7.263,0,0,0,2.7,12.807a7.149,7.149,0,0,0,8.868,0A7.236,7.236,0,0,1,8.86,7.183Z" transform="translate(0.019 0.019)" fill="#eb001b"/>
      <path id="Trazado_2173" data-name="Trazado 2173" d="M33.126,7.275A7.207,7.207,0,0,1,21.5,12.953,7.1,7.1,0,0,0,22.69,2.9a8.244,8.244,0,0,0-1.19-1.19A7.192,7.192,0,0,1,31.558,2.9a6.69,6.69,0,0,1,1.568,4.38Zm-.7,4.434v-.216h.108v-.054h-.216v.054h.054l.054.216Zm.487,0v-.27h-.054l-.054.216-.108-.216h-.054v.27h.054v-.216l.054.162H32.8l.054-.162v.216Z" transform="translate(-9.864 -0.073)" fill="#f79e1b"/>
    </g>
  </g>
</svg>
