<svg xmlns="http://www.w3.org/2000/svg" width="35" height="20.178" viewBox="0 0 35 20.178">
  <g id="icon-visa" transform="translate(-2030 -264.841)">
    <g id="Grupo_705" data-name="Grupo 705" transform="translate(2030 264.841)">
      <g id="XMLID_7_" transform="translate(0 0)">
        <path id="XMLID_130_" d="M33.059,28.178H1.941A1.777,1.777,0,0,1,0,26.632V9.546A1.777,1.777,0,0,1,1.941,8H33.059A1.777,1.777,0,0,1,35,9.546V26.632a1.777,1.777,0,0,1-1.941,1.546" transform="translate(0 -8)" fill="#074081"/>
      </g>
    </g>
    <g id="g4158" transform="translate(2031.243 269.841)">
      <path id="polygon9" d="M436.137,120.9h-2.63l1.645-10.171h2.63Z" transform="translate(-422.079 -110.542)" fill="#fff"/>
      <path id="path11" d="M573.068,105.481a6.482,6.482,0,0,0-2.359-.433c-2.6,0-4.426,1.385-4.437,3.365-.021,1.461,1.31,2.272,2.3,2.759,1.017.5,1.363.823,1.363,1.266-.01.681-.822,1-1.579,1a5.235,5.235,0,0,1-2.468-.541l-.346-.163-.368,2.283a8,8,0,0,0,2.933.541c2.76,0,4.556-1.363,4.577-3.474.011-1.158-.692-2.045-2.208-2.77-.92-.465-1.483-.779-1.483-1.255.011-.433.477-.876,1.515-.876a4.468,4.468,0,0,1,1.959.389l.238.108.358-2.2Z" transform="translate(-549.482 -105.048)" fill="#fff"/>
      <path id="path13" d="M794.591,117.295c.216-.584,1.05-2.846,1.05-2.846-.011.022.216-.6.346-.974l.184.876s.5,2.435.606,2.943Zm3.246-6.568H795.8a1.3,1.3,0,0,0-1.375.844l-3.906,9.327h2.76l.552-1.526h3.377c.075.357.314,1.526.314,1.526h2.435l-2.122-10.171Z" transform="translate(-767.519 -110.542)" fill="#fff"/>
      <path id="path15" d="M172.329,110.727l-2.576,6.936-.281-1.407a7.785,7.785,0,0,0-3.636-4.263l2.359,8.895h2.781l4.134-10.16Z" transform="translate(-163.087 -110.542)" fill="#fff"/>
      <path id="path17" d="M85.44,110.727H81.209l-.043.206a8.8,8.8,0,0,1,6.385,5.324l-.92-4.674a1.088,1.088,0,0,0-1.19-.855Z" transform="translate(-81.166 -110.542)" fill="#fff"/>
    </g>
  </g>
</svg>
