<svg id="Icon_Amex" data-name="Icon/Amex" xmlns="http://www.w3.org/2000/svg" width="35.232" height="20.18" viewBox="0 0 35.232 20.18">
  <g id="Grupo_1282" data-name="Grupo 1282" transform="translate(0 0)">
    <g id="Grupo_705" data-name="Grupo 705">
      <g id="XMLID_7_">
        <path id="XMLID_130_" d="M32.845,28.047H1.929A1.766,1.766,0,0,1,0,26.512V9.536A1.766,1.766,0,0,1,1.929,8H32.845a1.766,1.766,0,0,1,1.929,1.536V26.512a1.766,1.766,0,0,1-1.929,1.536" transform="translate(0 -8)" fill="#016fd0"/>
      </g>
    </g>
  </g>
  <g id="layer1" transform="translate(0 4)">
    <path id="path3082" d="M249.14,1546.349v-5.518h5.842l.627.817.648-.817h21.206v5.137a2.449,2.449,0,0,1-1.2.381H264.524l-.707-.87v.87H261.5v-1.485a1.941,1.941,0,0,1-1,.208h-.788v1.277h-3.506l-.626-.835-.635.835Z" transform="translate(-242.318 -1533.601)" fill="#fff"/>
    <path id="path3080" d="M55.5,1338.695l1.317-3.072H59.1l.748,1.721v-1.721h2.832l.445,1.244.431-1.244H76.265v.625a2.742,2.742,0,0,1,1.767-.625l4.125.015.735,1.7v-1.713h2.37l.652.975v-.975h2.392v5.518H85.914l-.625-.979v.979H81.807l-.35-.87h-.936l-.344.87H77.815a2.334,2.334,0,0,1-1.549-.613v.613H72.7l-.707-.87v.87H58.758l-.35-.87h-.933l-.347.87H55.5Z" transform="translate(-55.5 -1335.623)" fill="#fff"/>
    <path id="path3046" d="M57.47,1354.93l-1.777,4.131H56.85l.328-.827h1.906l.326.827h1.182l-1.775-4.131Zm.657.962.581,1.445H57.544Z" transform="translate(-55.686 -1354.25)" fill="#016fd0"/>
    <path id="path3048" d="M198.223,1359.037v-4.131l1.644.006.956,2.664.933-2.67h1.631v4.131h-1.033v-3.044l-1.095,3.044h-.906l-1.1-3.044v3.044Z" transform="translate(-193.195 -1354.227)" fill="#016fd0"/>
    <path id="path3050" d="M364.861,1359.037v-4.131h3.37v.924H365.9v.706h2.272v.87H365.9v.734h2.327v.9Z" transform="translate(-353.962 -1354.227)" fill="#016fd0"/>
    <path id="path3052" d="M477.5,1354.93v4.132h1.033v-1.468h.435l1.238,1.468h1.262l-1.359-1.522a1.258,1.258,0,0,0,1.133-1.269,1.336,1.336,0,0,0-1.444-1.34Zm1.033.924h1.181a.474.474,0,0,1,.489.435.467.467,0,0,1-.474.435h-1.2Z" transform="translate(-462.629 -1354.25)" fill="#016fd0"/>
    <path id="path3054" d="M596.741,1359.037h-1.055v-4.131h1.055Z" transform="translate(-576.655 -1354.227)" fill="#016fd0"/>
    <path id="path3056" d="M641.89,1359.037h-.228a1.821,1.821,0,0,1-1.77-2.049,1.893,1.893,0,0,1,2.052-2.083h1.142v.979H641.9a.994.994,0,0,0-.964,1.115,1.011,1.011,0,0,0,1.114,1.136h.272Z" transform="translate(-619.304 -1354.226)" fill="#016fd0"/>
    <path id="path3058" d="M711.729,1354.93l-1.777,4.131h1.157l.328-.827h1.906l.326.827h1.182l-1.775-4.131Zm.657.962.581,1.445H711.8Z" transform="translate(-686.894 -1354.25)" fill="#016fd0"/>
    <path id="path3060" d="M852.433,1359.037v-4.131h1.313l1.677,2.6v-2.6h1.033v4.131h-1.271l-1.719-2.664v2.664Z" transform="translate(-824.356 -1354.227)" fill="#016fd0"/>
    <path id="path3062" d="M269.2,1564.258v-4.132h3.37v.924h-2.327v.707h2.272v.87h-2.272v.734h2.327v.9Z" transform="translate(-261.669 -1552.216)" fill="#016fd0"/>
    <path id="path3064" d="M737.947,1564.258v-4.132h3.37v.924h-2.327v.707h2.262v.87h-2.262v.734h2.327v.9Z" transform="translate(-713.903 -1552.216)" fill="#016fd0"/>
    <path id="path3066" d="M367.5,1564.257l1.641-2.041-1.68-2.091h1.3l1,1.293,1-1.293h1.25l-1.658,2.066,1.644,2.066h-1.3l-.971-1.272-.948,1.272Z" transform="translate(-356.474 -1552.216)" fill="#016fd0"/>
    <path id="path3068" d="M499.869,1560.14v4.131h1.06v-1.3h1.087a1.429,1.429,0,0,0,1.617-1.437,1.36,1.36,0,0,0-1.483-1.39Zm1.06.934h1.145a.466.466,0,0,1,.51.475.476.476,0,0,1-.513.475h-1.142Z" transform="translate(-484.213 -1552.23)" fill="#016fd0"/>
    <path id="path3072" d="M619.448,1560.12v4.131h1.033v-1.468h.435l1.238,1.468h1.262l-1.359-1.522a1.258,1.258,0,0,0,1.133-1.269,1.336,1.336,0,0,0-1.444-1.34Zm1.033.924h1.181a.474.474,0,0,1,.489.435.467.467,0,0,1-.474.435h-1.2Z" transform="translate(-599.579 -1552.21)" fill="#016fd0"/>
    <path id="path3074" d="M843.6,1564.257v-.9h2.067c.306,0,.439-.165.439-.347s-.132-.349-.439-.349h-.934a1.155,1.155,0,0,1-1.264-1.238c0-.663.414-1.3,1.621-1.3H847.1l-.435.93h-1.74c-.333,0-.435.174-.435.341a.36.36,0,0,0,.381.36h.979a1.133,1.133,0,0,1,1.3,1.186,1.239,1.239,0,0,1-1.347,1.315Z" transform="translate(-815.703 -1552.216)" fill="#016fd0"/>
    <path id="path3076" d="M951.193,1564.257v-.9h2.067c.306,0,.438-.165.438-.347s-.132-.349-.438-.349h-.934a1.155,1.155,0,0,1-1.264-1.238c0-.663.414-1.3,1.621-1.3h2.011l-.435.93h-1.739c-.333,0-.435.174-.435.341a.36.36,0,0,0,.381.36h.978a1.133,1.133,0,0,1,1.3,1.186,1.239,1.239,0,0,1-1.347,1.315Z" transform="translate(-919.509 -1552.216)" fill="#016fd0"/>
  </g>
</svg>
